<svg viewBox="0 0 18 14" fill="none" xmlns="http://www.w3.org/2000/svg">
<rect x="2" y="6" width="4" height="2" fill="#9A8759"/>
<rect x="10" y="6" width="6" height="2" fill="#9A8759"/>
<rect x="16" y="6" width="2" height="2" fill="#F3BD66"/>
<rect x="2" y="2" width="2" height="2" fill="#F3BD66"/>
<rect x="4" width="2" height="2" fill="#F3BD66"/>
<path fill-rule="evenodd" clip-rule="evenodd" d="M6 2H4V4H2V6H4H6V2Z" fill="#34302C"/>
<rect x="14" y="8" width="2" height="4" fill="#F3BD66"/>
<rect x="12" y="10" width="2" height="2" fill="#F3BD66"/>
<rect x="10" y="12" width="2" height="2" fill="#F3BD66"/>
<path fill-rule="evenodd" clip-rule="evenodd" d="M10 12L12 12L12 10L14 10L14 8L12 8L10 8L10 12Z" fill="#34302C"/>
<rect x="8" y="6" width="2" height="6" fill="#F3BD66"/>
<rect x="6" y="2" width="2" height="6" fill="#F3BD66"/>
<rect y="4" width="2" height="4" fill="#F3BD66"/>
</svg>
