<svg width="33" height="33" viewBox="0 0 33 33" fill="none" xmlns="http://www.w3.org/2000/svg">
<g opacity="0.53">
<path d="M13.8978 4.01636C14.3674 3.54681 14.5339 3.38348 14.68 3.27202C15.7547 2.4518 17.2453 2.4518 18.32 3.27202C18.4661 3.38348 18.6326 3.54681 19.1022 4.01637L28.9836 13.8978C29.4532 14.3674 29.6165 14.5339 29.728 14.68C30.5482 15.7547 30.5482 17.2453 29.728 18.32C29.6165 18.4661 29.4532 18.6326 28.9836 19.1022L19.1022 28.9836C18.6326 29.4532 18.4661 29.6165 18.32 29.728C17.2453 30.5482 15.7547 30.5482 14.68 29.728C14.5339 29.6165 14.3674 29.4532 13.8978 28.9836L4.01637 19.1022C3.54682 18.6326 3.38348 18.4661 3.27202 18.32C2.4518 17.2453 2.4518 15.7547 3.27202 14.68C3.38348 14.5339 3.54682 14.3674 4.01637 13.8978L13.8978 4.01636Z" fill="url(#paint0_linear_9_12812)" stroke="#222222" stroke-width="2"/>
<g filter="url(#filter0_i_9_12812)">
<path d="M27.8516 7.38235V4.02673L9.3957 14.0936V18.1203H13.758L5.36896 25.5027V28.8583L24.8315 16.7781V13.4225H21.8115L27.8516 7.38235Z" fill="#FFBC01"/>
</g>
<path d="M28.2051 7.7359C28.2989 7.64213 28.3516 7.51496 28.3516 7.38235V4.02673C28.3516 3.85026 28.2586 3.68686 28.1068 3.59678C27.9551 3.5067 27.7671 3.50328 27.6122 3.58779L9.15627 13.6546C8.99564 13.7423 8.8957 13.9106 8.8957 14.0936V18.1203C8.8957 18.3965 9.11955 18.6203 9.3957 18.6203H12.433L5.03864 25.1273C4.93077 25.2222 4.86896 25.359 4.86896 25.5027V28.8583C4.86896 29.0398 4.9673 29.207 5.12589 29.2952C5.28449 29.3835 5.47844 29.3788 5.63264 29.2831L25.0952 17.2029C25.2422 17.1117 25.3315 16.951 25.3315 16.7781V13.4225C25.3315 13.1463 25.1077 12.9225 24.8315 12.9225H23.0186L28.2051 7.7359Z" stroke="#222222" stroke-linejoin="round"/>
<path d="M27.8516 7.38235V4.02673L9.3957 14.0936V18.1203H13.758L5.36896 25.5027V28.8583L24.8315 16.7781V13.4225H21.8115L27.8516 7.38235Z" stroke="#222222" stroke-linejoin="round"/>
<g filter="url(#filter1_i_9_12812)">
<path d="M27.8516 7.38236L28 4L9.3957 14.0936V18.1203H13.758L5.36896 25.5027V28.8583L24.8315 16.7781V13.4225H21.8115L27.8516 7.38236Z" stroke="#222222" stroke-linejoin="round"/>
</g>
<path d="M19.0936 12.3824L27 5L10 14.3957L16.4091 15.0668L5 26.4759L24.127 14.3957L19.0936 12.3824Z" fill="url(#paint1_linear_9_12812)"/>
</g>
<defs>
<filter id="filter0_i_9_12812" x="4.36896" y="3.02673" width="24.4826" height="27.8316" filterUnits="userSpaceOnUse" color-interpolation-filters="sRGB">
<feFlood flood-opacity="0" result="BackgroundImageFix"/>
<feBlend mode="normal" in="SourceGraphic" in2="BackgroundImageFix" result="shape"/>
<feColorMatrix in="SourceAlpha" type="matrix" values="0 0 0 0 0 0 0 0 0 0 0 0 0 0 0 0 0 0 127 0" result="hardAlpha"/>
<feOffset dy="4"/>
<feGaussianBlur stdDeviation="0.5"/>
<feComposite in2="hardAlpha" operator="arithmetic" k2="-1" k3="1"/>
<feColorMatrix type="matrix" values="0 0 0 0 1 0 0 0 0 0.470588 0 0 0 0 0.00784314 0 0 0 1 0"/>
<feBlend mode="normal" in2="shape" result="effect1_innerShadow_9_12812"/>
</filter>
<filter id="filter1_i_9_12812" x="4.86896" y="3.5" width="23.631" height="29.8583" filterUnits="userSpaceOnUse" color-interpolation-filters="sRGB">
<feFlood flood-opacity="0" result="BackgroundImageFix"/>
<feBlend mode="normal" in="SourceGraphic" in2="BackgroundImageFix" result="shape"/>
<feColorMatrix in="SourceAlpha" type="matrix" values="0 0 0 0 0 0 0 0 0 0 0 0 0 0 0 0 0 0 127 0" result="hardAlpha"/>
<feOffset dy="4"/>
<feGaussianBlur stdDeviation="2"/>
<feComposite in2="hardAlpha" operator="arithmetic" k2="-1" k3="1"/>
<feColorMatrix type="matrix" values="0 0 0 0 0 0 0 0 0 0 0 0 0 0 0 0 0 0 0.25 0"/>
<feBlend mode="normal" in2="shape" result="effect1_innerShadow_9_12812"/>
</filter>
<linearGradient id="paint0_linear_9_12812" x1="15.7714" y1="2.34893" x2="16.7781" y2="30.8717" gradientUnits="userSpaceOnUse">
<stop stop-color="white"/>
<stop offset="1" stop-color="#D9D9D9"/>
</linearGradient>
<linearGradient id="paint1_linear_9_12812" x1="13.389" y1="12.7179" x2="19.7647" y2="16.0735" gradientUnits="userSpaceOnUse">
<stop stop-color="#F7950B"/>
<stop offset="1" stop-color="#FDC500"/>
</linearGradient>
</defs>
</svg>
